<?xml version="1.0" standalone="no"?><!DOCTYPE svg PUBLIC "-//W3C//DTD SVG 1.1//EN" "http://www.w3.org/Graphics/SVG/1.1/DTD/svg11.dtd"><svg t="1784010694632" class="icon" viewBox="0 0 1024 1024" version="1.1" xmlns="http://www.w3.org/2000/svg" p-id="74754" xmlns:xlink="http://www.w3.org/1999/xlink" width="200" height="200"><path d="M959.744 314.496a20.224 20.224 0 0 0-1.216-5.76l-0.64-1.92a21.248 21.248 0 0 0-4.224-6.208l-300.8-294.4a22.08 22.08 0 0 0-6.4-4.16l-1.856-0.64a21.952 21.952 0 0 0-6.016-1.152C638.08 0.256 637.76 0 637.312 0H236.224C141.248 0 64 75.584 64 168.576v686.912C64 948.352 141.248 1024 236.224 1024h551.552C882.688 1024 960 948.352 960 855.488V315.712c0-0.448-0.192-0.768-0.256-1.216zM659.2 72.96l226.24 221.44h-172.864a52.864 52.864 0 0 1-53.376-52.288V72.96z m128.576 908.288H236.16c-70.848 0-128.576-56.448-128.576-125.824V168.512c0-69.376 57.728-125.824 128.64-125.824h379.264v199.424c0 52.352 43.52 94.976 97.024 94.976h203.776v518.336c0 69.376-57.728 125.824-128.64 125.824z m-554.368-449.92c-12.032 0-21.76-8.64-21.76-19.328 0-10.688 9.728-19.328 21.76-19.328h448.832c12.096 0 21.76 8.64 21.76 19.328 0 10.624-9.664 19.328-21.76 19.328H233.408z m547.392 106.24c11.968 0 21.632 8.704 21.632 19.328 0 10.688-9.6 19.328-21.632 19.328H233.344c-11.968 0-21.632-8.64-21.632-19.328 0-10.688 9.664-19.328 21.632-19.328H780.8z m0 144.896c11.968 0 21.632 8.64 21.632 19.328 0 10.752-9.6 19.328-21.632 19.328H233.344c-11.968 0-21.632-8.576-21.632-19.328 0-10.688 9.664-19.328 21.632-19.328H780.8z" fill="#1296db" p-id="74755"></path></svg>