<?xml version="1.0" standalone="no"?><!DOCTYPE svg PUBLIC "-//W3C//DTD SVG 1.1//EN" "http://www.w3.org/Graphics/SVG/1.1/DTD/svg11.dtd"><svg t="1783991668051" class="icon" viewBox="0 0 1024 1024" version="1.1" xmlns="http://www.w3.org/2000/svg" p-id="39088" xmlns:xlink="http://www.w3.org/1999/xlink" width="200" height="200"><path d="M864 832a32 32 0 1 1 0 64h-704a32 32 0 1 1 0-64h704z m-320-544a64 64 0 0 1 64 64V704a64 64 0 0 1-64 64h-64a64 64 0 0 1-64-64V352a64 64 0 0 1 64-64h64zM288 448a64 64 0 0 1 64 64v192a64 64 0 0 1-64 64h-64a64 64 0 0 1-64-64V512a64 64 0 0 1 64-64h64z m512-320a64 64 0 0 1 64 64v512a64 64 0 0 1-64 64h-64a64 64 0 0 1-64-64V192a64 64 0 0 1 64-64h64z m-256 224h-64V704h64V352zM288 512h-64v192h64V512z m512-320h-64v512h64V192z" fill="#6045FF" p-id="39089"></path></svg>