<?xml version="1.0" standalone="no"?><!DOCTYPE svg PUBLIC "-//W3C//DTD SVG 1.1//EN" "http://www.w3.org/Graphics/SVG/1.1/DTD/svg11.dtd"><svg t="1784010562551" class="icon" viewBox="0 0 1024 1024" version="1.1" xmlns="http://www.w3.org/2000/svg" p-id="73708" xmlns:xlink="http://www.w3.org/1999/xlink" width="200" height="200"><path d="M448.1024 640h32a224.0512 224.0512 0 1 0 0-448.1024h-256a224.0512 224.0512 0 1 0 0 448.1024H256v-64h-32a160.0512 160.0512 0 1 1 0-320.1024h256.0512a160.0512 160.0512 0 1 1 0 320.1024h-32v64z m96.0512 192.0512h256a224.0512 224.0512 0 0 0 0-448.1024h-31.9488v64h32a160.0512 160.0512 0 0 1 0 320.1024h-256.0512a160.0512 160.0512 0 0 1 0-320.1024h32V384h-32a224.0512 224.0512 0 0 0 0 448.1024z" fill="#3A74FF" p-id="73709"></path></svg>